# xmcd
#
# Track frame offsets:
#	150
#	29016
#	45090
#	55400
#	65366
#	98193
#	112668
#	127837
#	142535
#	152874
#	166649
#
# Disc length: 2652 seconds
#
# Revision: 2
# Processed by: cddbd v1.5.2PL0 Copyright (c) Steve Scherf et al.
# Submitted via: audiograbber 1.83.01
#
DISCID=7b0a5a0b
DTITLE=The Doors - The Best Of The Doors [remastered by Audio Fidelity] [SACD]
DYEAR=1973
DGENRE=Rock
TTITLE0=Who Do You Love
TTITLE1=Soul Kitchen
TTITLE2=Hello, I Love You
TTITLE3=People Are Strange
TTITLE4=Riders On The Storm
TTITLE5=Touch Me
TTITLE6=Love Her Madly
TTITLE7=Love Me Two Times
TTITLE8=Take It As It Comes
TTITLE9=Moonlight Drive
TTITLE10=Light My Fire
EXTD=
EXTT0=
EXTT1=
EXTT2=
EXTT3=
EXTT4=
EXTT5=
EXTT6=
EXTT7=
EXTT8=
EXTT9=
EXTT10=
PLAYORDER=
